<svg class="railroad-diagram" width="1029" height="352" viewBox="0 0 1029 352" xmlns="http://www.w3.org/2000/svg" xmlns:xlink="http://www.w3.org/1999/xlink">
<g transform="translate(.5 .5)">
<g>
<path d="M20 21v20m10 -20v20m-10 -10h20"></path>
</g>
<path d="M40 31h10"></path>
<g>
<path d="M50 31h0"></path>
<path d="M146.5 31h0"></path>
<g class="terminal ">
<path d="M50 31h0"></path>
<path d="M146.5 31h0"></path>
<rect x="50" y="20" width="96.5" height="22" rx="10" ry="10"></rect>
<text x="98.25" y="35">&#60;Channel></text>
</g>
</g>
<path d="M146.5 31h10"></path>
<g>
<path d="M156.5 31h0"></path>
<path d="M989 31h0"></path>
<path d="M156.5 31h20"></path>
<g>
<path d="M176.5 31h293"></path>
<path d="M676 31h293"></path>
<path d="M469.5 31h20"></path>
<g>
<path d="M489.5 31h36.25"></path>
<path d="M619.75 31h36.25"></path>
<path d="M525.75 31h20"></path>
<g class="terminal ">
<path d="M545.75 31h0"></path>
<path d="M599.75 31h0"></path>
<rect x="545.75" y="20" width="54" height="22" rx="10" ry="10"></rect>
<text x="572.75" y="35">FULL</text>
</g>
<path d="M599.75 31h20"></path>
<path d="M525.75 31a10 10 0 0 1 10 10v10a10 10 0 0 0 10 10"></path>
<g class="terminal ">
<path d="M545.75 61h0"></path>
<path d="M599.75 61h0"></path>
<rect x="545.75" y="50" width="54" height="22" rx="10" ry="10"></rect>
<text x="572.75" y="65">ZERO</text>
</g>
<path d="M599.75 61a10 10 0 0 0 10 -10v-10a10 10 0 0 1 10 -10"></path>
</g>
<path d="M656 31h20"></path>
<path d="M469.5 31a10 10 0 0 1 10 10v40a10 10 0 0 0 10 10"></path>
<g>
<path d="M489.5 91h0"></path>
<path d="M656 91h0"></path>
<g class="terminal ">
<path d="M489.5 91h0"></path>
<path d="M526.5 91h0"></path>
<rect x="489.5" y="80" width="37" height="22" rx="10" ry="10"></rect>
<text x="508" y="95">AT</text>
</g>
<path d="M526.5 91h10"></path>
<g>
<path d="M536.5 91h0"></path>
<path d="M656 91h0"></path>
<path d="M536.5 91h20"></path>
<g class="terminal ">
<path d="M556.5 91h0"></path>
<path d="M636 91h0"></path>
<rect x="556.5" y="80" width="79.5" height="22" rx="10" ry="10"></rect>
<text x="596.25" y="95">&#60;Value></text>
</g>
<path d="M636 91h20"></path>
<path d="M536.5 91a10 10 0 0 1 10 10v10a10 10 0 0 0 10 10"></path>
<g class="terminal ">
<path d="M556.5 121h12.75"></path>
<path d="M623.25 121h12.75"></path>
<rect x="569.25" y="110" width="54" height="22" rx="10" ry="10"></rect>
<text x="596.25" y="125">FULL</text>
</g>
<path d="M636 121a10 10 0 0 0 10 -10v-10a10 10 0 0 1 10 -10"></path>
<path d="M536.5 91a10 10 0 0 1 10 10v40a10 10 0 0 0 10 10"></path>
<g class="terminal ">
<path d="M556.5 151h12.75"></path>
<path d="M623.25 151h12.75"></path>
<rect x="569.25" y="140" width="54" height="22" rx="10" ry="10"></rect>
<text x="596.25" y="155">ZERO</text>
</g>
<path d="M636 151a10 10 0 0 0 10 -10v-40a10 10 0 0 1 10 -10"></path>
</g>
</g>
<path d="M656 91a10 10 0 0 0 10 -10v-40a10 10 0 0 1 10 -10"></path>
</g>
<path d="M969 31h20"></path>
<path d="M156.5 31a10 10 0 0 1 10 10v130a10 10 0 0 0 10 10"></path>
<g>
<path d="M176.5 181h0"></path>
<path d="M969 181h0"></path>
<g class="terminal ">
<path d="M176.5 181h0"></path>
<path d="M230.5 181h0"></path>
<rect x="176.5" y="170" width="54" height="22" rx="10" ry="10"></rect>
<text x="203.5" y="185">THRU</text>
</g>
<path d="M230.5 181h10"></path>
<path d="M240.5 181h10"></path>
<g class="terminal ">
<path d="M250.5 181h0"></path>
<path d="M347 181h0"></path>
<rect x="250.5" y="170" width="96.5" height="22" rx="10" ry="10"></rect>
<text x="298.75" y="185">&#60;Channel></text>
</g>
<path d="M347 181h10"></path>
<g>
<path d="M357 181h0"></path>
<path d="M559 181h0"></path>
<path d="M357 181h20"></path>
<g>
<path d="M377 181h162"></path>
</g>
<path d="M539 181h20"></path>
<path d="M357 181a10 10 0 0 1 10 10v0a10 10 0 0 0 10 10"></path>
<g>
<path d="M377 201h0"></path>
<path d="M539 201h0"></path>
<g class="terminal ">
<path d="M377 201h0"></path>
<path d="M414 201h0"></path>
<rect x="377" y="190" width="37" height="22" rx="10" ry="10"></rect>
<text x="395.5" y="205">BY</text>
</g>
<path d="M414 201h10"></path>
<path d="M424 201h10"></path>
<g class="terminal ">
<path d="M434 201h0"></path>
<path d="M539 201h0"></path>
<rect x="434" y="190" width="105" height="22" rx="10" ry="10"></rect>
<text x="486.5" y="205">&#60;Interval></text>
</g>
</g>
<path d="M539 201a10 10 0 0 0 10 -10v0a10 10 0 0 1 10 -10"></path>
</g>
<g>
<path d="M559 181h0"></path>
<path d="M969 181h0"></path>
<path d="M559 181h20"></path>
<g>
<path d="M579 181h138"></path>
<path d="M811 181h138"></path>
<path d="M717 181h20"></path>
<g class="terminal ">
<path d="M737 181h0"></path>
<path d="M791 181h0"></path>
<rect x="737" y="170" width="54" height="22" rx="10" ry="10"></rect>
<text x="764" y="185">FULL</text>
</g>
<path d="M791 181h20"></path>
<path d="M717 181a10 10 0 0 1 10 10v10a10 10 0 0 0 10 10"></path>
<g class="terminal ">
<path d="M737 211h0"></path>
<path d="M791 211h0"></path>
<rect x="737" y="200" width="54" height="22" rx="10" ry="10"></rect>
<text x="764" y="215">ZERO</text>
</g>
<path d="M791 211a10 10 0 0 0 10 -10v-10a10 10 0 0 1 10 -10"></path>
</g>
<path d="M949 181h20"></path>
<path d="M559 181a10 10 0 0 1 10 10v40a10 10 0 0 0 10 10"></path>
<g>
<path d="M579 241h0"></path>
<path d="M949 241h0"></path>
<g class="terminal ">
<path d="M579 241h0"></path>
<path d="M616 241h0"></path>
<rect x="579" y="230" width="37" height="22" rx="10" ry="10"></rect>
<text x="597.5" y="245">AT</text>
</g>
<path d="M616 241h10"></path>
<g>
<path d="M626 241h0"></path>
<path d="M949 241h0"></path>
<path d="M626 241h20"></path>
<g>
<path d="M646 241h0"></path>
<path d="M929 241h0"></path>
<g class="terminal ">
<path d="M646 241h0"></path>
<path d="M725.5 241h0"></path>
<rect x="646" y="230" width="79.5" height="22" rx="10" ry="10"></rect>
<text x="685.75" y="245">&#60;Value></text>
</g>
<path d="M725.5 241h10"></path>
<g>
<path d="M735.5 241h0"></path>
<path d="M929 241h0"></path>
<path d="M735.5 241h20"></path>
<g>
<path d="M755.5 241h153.5"></path>
</g>
<path d="M909 241h20"></path>
<path d="M735.5 241a10 10 0 0 1 10 10v0a10 10 0 0 0 10 10"></path>
<g>
<path d="M755.5 261h0"></path>
<path d="M909 261h0"></path>
<g class="terminal ">
<path d="M755.5 261h0"></path>
<path d="M809.5 261h0"></path>
<rect x="755.5" y="250" width="54" height="22" rx="10" ry="10"></rect>
<text x="782.5" y="265">THRU</text>
</g>
<path d="M809.5 261h10"></path>
<path d="M819.5 261h10"></path>
<g class="terminal ">
<path d="M829.5 261h0"></path>
<path d="M909 261h0"></path>
<rect x="829.5" y="250" width="79.5" height="22" rx="10" ry="10"></rect>
<text x="869.25" y="265">&#60;Value></text>
</g>
</g>
<path d="M909 261a10 10 0 0 0 10 -10v0a10 10 0 0 1 10 -10"></path>
</g>
</g>
<path d="M929 241h20"></path>
<path d="M626 241a10 10 0 0 1 10 10v30a10 10 0 0 0 10 10"></path>
<g>
<path d="M646 291h94.5"></path>
<path d="M834.5 291h94.5"></path>
<path d="M740.5 291h20"></path>
<g class="terminal ">
<path d="M760.5 291h0"></path>
<path d="M814.5 291h0"></path>
<rect x="760.5" y="280" width="54" height="22" rx="10" ry="10"></rect>
<text x="787.5" y="295">FULL</text>
</g>
<path d="M814.5 291h20"></path>
<path d="M740.5 291a10 10 0 0 1 10 10v10a10 10 0 0 0 10 10"></path>
<g class="terminal ">
<path d="M760.5 321h0"></path>
<path d="M814.5 321h0"></path>
<rect x="760.5" y="310" width="54" height="22" rx="10" ry="10"></rect>
<text x="787.5" y="325">ZERO</text>
</g>
<path d="M814.5 321a10 10 0 0 0 10 -10v-10a10 10 0 0 1 10 -10"></path>
</g>
<path d="M929 291a10 10 0 0 0 10 -10v-30a10 10 0 0 1 10 -10"></path>
</g>
</g>
<path d="M949 241a10 10 0 0 0 10 -10v-40a10 10 0 0 1 10 -10"></path>
</g>
</g>
<path d="M969 181a10 10 0 0 0 10 -10v-130a10 10 0 0 1 10 -10"></path>
</g>
<path d="M 989 31 h 20 m -10 -10 v 20 m 10 -20 v 20"></path>
</g>
<style>
	svg {
		background-color: hsl(30,20%,95%);
	}
	path {
		stroke-width: 3;
		stroke: black;
		fill: rgba(0,0,0,0);
	}
	text {
		font: bold 14px monospace;
		text-anchor: middle;
		white-space: pre;
	}
	text.diagram-text {
		font-size: 12px;
	}
	text.diagram-arrow {
		font-size: 16px;
	}
	text.label {
		text-anchor: start;
	}
	text.comment {
		font: italic 12px monospace;
	}
	g.non-terminal text {
		/&#42;font-style: italic;&#42;/
	}
	rect {
		stroke-width: 3;
		stroke: black;
		fill: hsl(120,100%,90%);
	}
	rect.group-box {
		stroke: gray;
		stroke-dasharray: 10 5;
		fill: none;
	}
	path.diagram-text {
		stroke-width: 3;
		stroke: black;
		fill: white;
		cursor: help;
	}
	g.diagram-text:hover path.diagram-text {
		fill: #eee;
	}</style>
</svg>
